<svg width="105" height="77" viewBox="0 0 105 77" fill="none" xmlns="http://www.w3.org/2000/svg">
<path d="M3.32118 76.2508C2.54722 76.4662 1.9039 76.3792 1.39121 75.9897C0.883456 75.5989 0.629578 75.0043 0.629578 74.206C0.629578 73.4078 0.883456 72.6744 1.39121 72.006C1.89897 71.3274 2.54229 70.8797 3.32118 70.6629C3.78457 70.5339 4.21346 70.5271 4.60783 70.6425C5.00221 70.7527 5.31278 70.9682 5.53954 71.2889L4.5191 72.187C4.40572 72.0087 4.24304 71.8928 4.03106 71.8392C3.82401 71.7792 3.58739 71.7862 3.32118 71.8603C2.85779 71.9893 2.49053 72.2373 2.2194 72.6045C1.94827 72.9665 1.8127 73.3906 1.8127 73.8767C1.8127 74.3628 1.94827 74.7114 2.2194 74.9225C2.49053 75.1387 2.85779 75.1824 3.32118 75.0534C3.58246 74.9806 3.81908 74.8559 4.03106 74.6792C4.24797 74.5012 4.41065 74.2947 4.5191 74.0598L5.53954 74.3898C5.31771 74.8354 5.0096 75.2256 4.61523 75.5605C4.22085 75.8903 3.7895 76.1204 3.32118 76.2508Z" fill="#FF6417"/>
<path d="M10.6786 74.0954L9.38458 74.4556L9.12577 73.6833L7.20319 74.2184L6.94439 75.1348L5.65034 75.495L7.41024 69.6322L8.91873 69.2123L10.6786 74.0954ZM8.16448 70.8269L7.55813 72.9683L8.77083 72.6307L8.16448 70.8269Z" fill="#FF6417"/>
<path d="M11.12 68.5996L13.0795 68.0541C13.5922 67.9114 14.0211 67.9711 14.3662 68.2333C14.7162 68.4992 14.8912 68.8854 14.8912 69.392C14.8912 69.8986 14.7162 70.3823 14.3662 70.843C14.0211 71.2972 13.5922 71.5957 13.0795 71.7384L12.3031 71.9545V73.6432L11.12 73.9725V68.5996ZM12.3031 70.8032L13.0795 70.5871C13.2619 70.5363 13.4123 70.4279 13.5306 70.262C13.6489 70.096 13.7081 69.9158 13.7081 69.7213C13.7081 69.5269 13.6489 69.3796 13.5306 69.2795C13.4123 69.1794 13.2619 69.1547 13.0795 69.2055L12.3031 69.4216V70.8032Z" fill="#FF6417"/>
<path d="M15.4816 72.7585V67.3855L16.6647 67.0562V72.4291L15.4816 72.7585Z" fill="#FF6417"/>
<path d="M17.1844 66.9115L21.0295 65.8412V67.0233L19.6985 67.3938V71.5847L18.5154 71.914V67.7231L17.1844 68.0936V66.9115Z" fill="#FF6417"/>
<path d="M25.7637 69.8964L24.4697 70.2566L24.2109 69.4843L22.2883 70.0195L22.0295 70.9358L20.7355 71.296L22.4954 65.4332L24.0038 65.0133L25.7637 69.8964ZM23.2496 66.6279L22.6433 68.7693L23.856 68.4318L23.2496 66.6279Z" fill="#FF6417"/>
<path d="M27.3882 64.0713V68.2622L29.2369 67.7476V68.9297L26.2051 69.7736V64.4006L27.3882 64.0713Z" fill="#FF6417"/>
<path d="M34.7492 62.0223V63.2044L32.7897 63.7498V64.786L34.7123 64.2509V65.4329L32.7897 65.9681V67.9407L31.6066 68.2701V62.8971L34.7492 62.0223Z" fill="#FF6417"/>
<path d="M39.8258 65.2837C39.3033 65.9665 38.6673 66.4121 37.918 66.6207C37.1687 66.8293 36.5328 66.7377 36.0102 66.3458C35.4877 65.954 35.2264 65.364 35.2264 64.576C35.2264 63.788 35.4877 63.0526 36.0102 62.3698C36.5328 61.6871 37.1687 61.2414 37.918 61.0329C38.6673 60.8243 39.3033 60.9159 39.8258 61.3078C40.3484 61.6996 40.6096 62.2895 40.6096 63.0776C40.6096 63.8656 40.3484 64.601 39.8258 65.2837ZM36.4095 64.2467C36.4095 64.7174 36.5525 65.0614 36.8384 65.2786C37.1243 65.4958 37.4842 65.5441 37.918 65.4233C38.3469 65.3039 38.7043 65.0561 38.9902 64.6797C39.2811 64.2968 39.4265 63.8726 39.4265 63.4069C39.4265 62.9412 39.2811 62.5979 38.9902 62.377C38.7043 62.1598 38.3469 62.1109 37.918 62.2303C37.4842 62.351 37.1243 62.5996 36.8384 62.9759C36.5525 63.3523 36.4095 63.7759 36.4095 64.2467Z" fill="#FF6417"/>
<path d="M45.2688 64.4672L43.997 64.8212L43.0209 63.3275L42.4589 63.4839V65.2493L41.2758 65.5786V60.2057L43.3462 59.6294C43.8392 59.4921 44.2582 59.5546 44.6033 59.8168C44.9484 60.0789 45.1209 60.4658 45.1209 60.9775C45.1209 61.2999 45.0322 61.6265 44.8547 61.9574C44.6822 62.2868 44.453 62.5681 44.167 62.8012L45.2688 64.4672ZM43.3462 60.7807L42.4589 61.0277V62.4093L43.3462 62.1623C43.5089 62.117 43.647 62.0121 43.7603 61.8475C43.8786 61.6815 43.9378 61.5013 43.9378 61.3069C43.9378 61.1124 43.8786 60.9651 43.7603 60.865C43.647 60.7635 43.5089 60.7354 43.3462 60.7807Z" fill="#FF6417"/>
<path d="M50.1435 63.2177C49.3696 63.4332 48.7263 63.3462 48.2136 62.9567C47.7058 62.5658 47.4519 61.9713 47.4519 61.173C47.4519 60.3747 47.7058 59.6414 48.2136 58.973C48.7213 58.2944 49.3647 57.8467 50.1435 57.6299C50.6069 57.5009 51.0358 57.4941 51.4302 57.6095C51.8246 57.7197 52.1351 57.9352 52.3619 58.2558L51.3415 59.1539C51.2281 58.9757 51.0654 58.8598 50.8534 58.8062C50.6464 58.7462 50.4097 58.7532 50.1435 58.8273C49.6802 58.9563 49.3129 59.2043 49.0418 59.5715C48.7706 59.9335 48.6351 60.3576 48.6351 60.8437C48.6351 61.3298 48.7706 61.6784 49.0418 61.8895C49.3129 62.1057 49.6802 62.1493 50.1435 62.0203C50.4048 61.9476 50.6414 61.8229 50.8534 61.6462C51.0703 61.4681 51.233 61.2617 51.3415 61.0268L52.3619 61.3568C52.1401 61.8023 51.832 62.1926 51.4376 62.5275C51.0432 62.8573 50.6119 63.0874 50.1435 63.2177Z" fill="#FF6417"/>
<path d="M56.9094 61.227L55.6376 61.581L54.6615 60.0873L54.0995 60.2437V62.0091L52.9164 62.3385V56.9655L54.9868 56.3892C55.4798 56.252 55.8988 56.3144 56.2439 56.5766C56.589 56.8387 56.7615 57.2257 56.7615 57.7374C56.7615 58.0597 56.6728 58.3864 56.4953 58.7172C56.3228 59.0467 56.0936 59.3279 55.8076 59.561L56.9094 61.227ZM54.9868 57.5405L54.0995 57.7875V59.1692L54.9868 58.9222C55.1495 58.8769 55.2875 58.7719 55.4009 58.6073C55.5192 58.4414 55.5784 58.2611 55.5784 58.0667C55.5784 57.8722 55.5192 57.725 55.4009 57.6248C55.2875 57.5234 55.1495 57.4953 54.9868 57.5405Z" fill="#FF6417"/>
<path d="M58.6489 58.609V59.5608L60.7193 58.9845V60.1665L57.4657 61.0721V55.6992L60.6824 54.8038V55.9859L58.6489 56.5519V57.4423L60.4975 56.9277V58.0944L58.6489 58.609Z" fill="#FF6417"/>
<path d="M66.0437 58.6845L64.7496 59.0447L64.4908 58.2724L62.5683 58.8075L62.3094 59.7239L61.0154 60.0841L62.7753 54.2213L64.2838 53.8014L66.0437 58.6845ZM63.5295 55.416L62.9232 57.5574L64.1359 57.2198L63.5295 55.416Z" fill="#FF6417"/>
<path d="M65.747 53.3941L69.5922 52.3238V53.5058L68.2612 53.8763V58.0672L67.078 58.3966V54.2057L65.747 54.5761V53.3941Z" fill="#FF6417"/>
<path d="M74.1916 55.718C73.669 56.4008 73.0331 56.8464 72.2838 57.055C71.5345 57.2636 70.8985 57.1719 70.376 56.7801C69.8535 56.3882 69.5922 55.7983 69.5922 55.0103C69.5922 54.2222 69.8535 53.4868 70.376 52.8041C70.8985 52.1214 71.5345 51.6757 72.2838 51.4671C73.0331 51.2586 73.669 51.3502 74.1916 51.742C74.7141 52.1339 74.9754 52.7238 74.9754 53.5118C74.9754 54.2999 74.7141 55.0353 74.1916 55.718ZM70.7753 54.6809C70.7753 55.1517 70.9183 55.4957 71.2042 55.7129C71.4901 55.9301 71.85 55.9783 72.2838 55.8576C72.7127 55.7382 73.0701 55.4903 73.356 55.114C73.6468 54.7311 73.7923 54.3068 73.7923 53.8412C73.7923 53.3755 73.6468 53.0322 73.356 52.8113C73.0701 52.5941 72.7127 52.5451 72.2838 52.6645C71.85 52.7853 71.4901 53.0338 71.2042 53.4102C70.9183 53.7866 70.7753 54.2102 70.7753 54.6809Z" fill="#FF6417"/>
<path d="M79.6346 54.9014L78.3627 55.2555L77.3866 53.7618L76.8247 53.9182V55.6836L75.6415 56.0129V50.64L77.712 50.0636C78.205 49.9264 78.624 49.9889 78.9691 50.251C79.3142 50.5132 79.4867 50.9001 79.4867 51.4118C79.4867 51.7342 79.398 52.0608 79.2205 52.3916C79.0479 52.7211 78.8187 53.0024 78.5328 53.2355L79.6346 54.9014ZM77.712 51.215L76.8247 51.462V52.8436L77.712 52.5966C77.8747 52.5513 78.0127 52.4464 78.1261 52.2818C78.2444 52.1158 78.3036 51.9356 78.3036 51.7411C78.3036 51.5467 78.2444 51.3994 78.1261 51.2993C78.0127 51.1978 77.8747 51.1697 77.712 51.215Z" fill="#FF6417"/>
<path d="M81.9304 54.3699C81.4127 54.5139 80.9765 54.5202 80.6215 54.3888C80.2666 54.2522 80.0127 53.9954 79.8599 53.6183L80.8803 52.7202C81.0874 53.1589 81.4497 53.3063 81.9673 53.1622C82.4356 53.0318 82.6698 52.8208 82.6698 52.5291C82.6698 52.3654 82.5934 52.2638 82.4406 52.2245C82.2828 52.1712 82.0018 52.1445 81.5976 52.1444C81.1835 52.142 80.8335 52.0706 80.5476 51.9301C80.2321 51.7519 80.0743 51.4197 80.0743 50.9335C80.0743 50.4372 80.2444 49.9933 80.5845 49.6018C80.9296 49.2089 81.3388 48.9467 81.812 48.8149C82.236 48.6969 82.6106 48.6975 82.936 48.8168C83.2614 48.9309 83.5177 49.1589 83.705 49.5008L82.7068 50.385C82.5195 50.0227 82.2212 49.8984 81.812 50.0123C81.6395 50.0604 81.5039 50.1365 81.4053 50.2407C81.3067 50.3449 81.2575 50.4558 81.2575 50.5735C81.2575 50.7014 81.3166 50.8001 81.4349 50.8695C81.5631 50.9362 81.8145 50.9737 82.1892 50.9819L82.6698 51.0094C82.793 51.016 82.936 51.0453 83.0987 51.0972C83.2762 51.1399 83.4093 51.2027 83.498 51.2854C83.7346 51.4856 83.8529 51.7853 83.8529 52.1845C83.8529 52.691 83.6755 53.1447 83.3205 53.5454C82.9656 53.9359 82.5022 54.2107 81.9304 54.3699Z" fill="#FF6417"/>
<path d="M0.275879 26.4973L6.42093 24.8564V59.3147L16.5205 56.5417V62.2847L0.275879 66.715V26.4973Z" fill="white"/>
<path d="M18.4246 21.5501L24.5614 19.9092V60.1105L18.4246 61.7514V21.5501Z" fill="white"/>
<path d="M29.287 56.7469C27.761 55.4178 26.998 53.1288 26.998 49.8799V47.5826L32.8067 45.9992V48.7559C32.8067 51.3539 33.865 52.3658 35.9818 51.7915C36.9415 51.5617 37.7862 50.9937 38.361 50.1916C38.9578 49.2049 39.2437 48.0614 39.1815 46.9099C39.2449 45.4469 38.8552 44 38.0657 42.7667C36.9373 41.345 35.5443 40.1553 33.9635 39.2634C31.8718 38.0679 30.0615 36.4366 28.6553 34.4803C27.5998 32.7072 27.0759 30.6683 27.1457 28.606C27.052 25.7496 27.8742 22.938 29.4921 20.5821C31.168 18.3398 33.578 16.7573 36.3017 16.1108C39.2498 15.3177 41.4759 15.5911 42.9801 16.9312C44.4815 18.2685 45.2363 20.5575 45.2363 23.8146V25.4555L39.4194 27.0061V24.9386C39.4194 23.5603 39.1459 22.625 38.599 22.1327C38.2813 21.8788 37.9011 21.715 37.4983 21.6587C37.0956 21.6024 36.685 21.6557 36.3099 21.8128C34.2643 22.3597 33.2415 23.9213 33.2415 26.4975C33.2076 27.8426 33.6074 29.1629 34.3819 30.2633C35.5461 31.6588 36.9558 32.8294 38.5415 33.7173C40.658 34.8927 42.4746 36.5408 43.8497 38.5332C44.8881 40.4334 45.3901 42.5803 45.3019 44.7439C45.4064 47.6616 44.5756 50.5362 42.9309 52.9483C41.2328 55.2183 38.7902 56.8186 36.031 57.4689C33.0774 58.3167 30.8294 58.076 29.287 56.7469Z" fill="white"/>
<path d="M52.5958 17.9815L46.1718 19.7291V13.986L65.1566 8.80908V14.5521L58.7326 16.3407V50.799L52.5958 52.4398V17.9815Z" fill="white"/>
<path d="M67.0267 8.292L83.78 3.72217V9.46522L73.1717 12.3614V23.027L81.6058 20.7298V26.4728L73.1717 28.7701V41.0766L83.78 38.1805V43.9235L67.0267 48.4933V8.292Z" fill="white"/>
<path d="M86.2659 3.05731L95.6434 0.497557C98.6955 -0.339287 100.984 -0.120514 102.51 1.1539C104.036 2.42831 104.8 4.68999 104.8 7.93891V28.2611C104.918 31.1172 104.115 33.9357 102.51 36.3013C100.801 38.5195 98.3733 40.0742 95.6434 40.6989L86.2659 43.2586V3.05731ZM95.5286 34.9887C96.4629 34.761 97.2859 34.2084 97.8504 33.4298C98.446 32.4728 98.7324 31.3556 98.6708 30.2301V9.32545C98.6708 7.94712 98.4001 7.02002 97.8504 6.55237C97.5169 6.31698 97.1301 6.16822 96.7247 6.11952C96.3194 6.07083 95.9084 6.12373 95.5286 6.27343L92.4027 7.09386V35.8091L95.5286 34.9887Z" fill="white"/>
<path d="M104.798 48.3632V42.438L91.7327 46.0007L88.4663 46.8914L86.8331 47.3368V53.2605L88.4663 52.8153L91.7327 51.9249L104.798 48.3632Z" fill="#FF6B00"/>
</svg>
