<svg width="342" height="253" viewBox="0 0 342 253" fill="none" xmlns="http://www.w3.org/2000/svg">
<path d="M-9.15527e-05 86.9286L18.5091 81.9863V185.776L48.9294 177.349V194.648L-9.15527e-05 208.017V86.9286Z" fill="#3F3F3F"/>
<path d="M59.8773 70.5942L78.3618 65.6518V186.74L59.8773 191.682V70.5942Z" fill="#3F3F3F"/>
<path d="M97.8841 175.175C93.2877 171.171 90.9895 164.277 90.9895 154.491V147.572L108.486 142.802V151.105C108.486 158.931 111.682 161.979 118.074 160.249C120.955 159.551 123.49 157.841 125.215 155.43C127.023 152.462 127.885 149.015 127.687 145.545C127.843 141.178 126.662 136.867 124.301 133.189C120.908 128.901 116.711 125.317 111.945 122.637C105.645 119.036 100.192 114.123 95.9566 108.23C92.7585 102.844 91.1879 96.6475 91.4343 90.3884C91.1556 81.7851 93.6318 73.3177 98.5019 66.2202C103.56 59.4661 110.827 54.7001 119.037 52.7522C127.884 50.3469 134.581 51.1707 139.128 55.2234C143.552 59.3009 145.8 66.0719 145.8 75.8825V80.8249L128.329 85.5943V79.4163C128.329 75.2894 127.538 72.4723 125.858 70.9896C124.901 70.2246 123.756 69.7314 122.543 69.5618C121.33 69.3922 120.093 69.5525 118.963 70.0258C112.802 71.6733 109.721 76.3767 109.721 84.1363C109.629 88.1864 110.833 92.1602 113.156 95.479C116.678 99.6761 120.932 103.201 125.71 105.883C132.073 109.43 137.535 114.393 141.674 120.389C144.801 126.112 146.313 132.579 146.048 139.095C146.359 147.883 143.857 156.54 138.906 163.807C133.791 170.645 126.434 175.465 118.123 177.424C109.227 179.928 102.481 179.178 97.8841 175.175Z" fill="#3F3F3F"/>
<path d="M173.23 56.9779L153.88 62.2415V44.9432L211.063 29.35V46.6483L191.714 51.8873V155.677L173.23 160.619V56.9779Z" fill="#3F3F3F"/>
<path d="M221.987 26.3846L272.448 12.6201V29.9184L240.496 38.6416V70.7671L265.9 63.8477V81.146L240.496 88.0654V125.133L272.448 116.41V133.708L221.987 147.473V26.3846Z" fill="#3F3F3F"/>
<path d="M285.076 9.18511L313.321 1.47501C322.514 -1.01265 329.409 -0.353664 334.005 3.45196C338.552 7.40586 341.023 14.0781 341.023 23.8887V55.4704C341.379 64.0655 338.962 72.5471 334.129 79.6634C328.987 86.3523 321.672 91.0369 313.445 92.9089L285.199 100.619L285.076 9.18511ZM312.975 75.7094C315.792 75.0422 318.274 73.3845 319.969 71.0389C321.76 68.1461 322.623 64.7742 322.44 61.3766V28.065C322.44 23.9134 321.625 21.1457 319.969 19.7371C318.967 19.024 317.802 18.5716 316.582 18.4206C315.361 18.2696 314.121 18.4248 312.975 18.8722L303.56 21.3434V78.1806L312.975 75.7094Z" fill="#3F3F3F"/>
<path d="M-9.15527e-05 225.068L11.2191 222.004V225.958L4.22564 227.86V235.595L9.71167 234.088V238.066L4.22564 239.549V251.633L-9.15527e-05 252.795V225.068Z" fill="#FF6B00"/>
<path d="M13.863 247.581C13.2533 246.972 12.788 246.234 12.5014 245.421C12.2149 244.608 12.1143 243.742 12.2073 242.885V228.305C12.1374 226.305 12.7184 224.337 13.863 222.696C15.046 221.139 16.731 220.039 18.6324 219.582C19.4088 219.27 20.2501 219.154 21.082 219.244C21.9139 219.335 22.7107 219.629 23.4018 220.101C24.0115 220.71 24.4768 221.448 24.7633 222.26C25.0499 223.073 25.1504 223.94 25.0575 224.796V239.376C25.1274 241.376 24.5464 243.344 23.4018 244.986C22.2244 246.549 20.537 247.65 18.6324 248.099C17.856 248.412 17.0146 248.528 16.1827 248.437C15.3508 248.347 14.5541 248.052 13.863 247.581ZM20.8317 240.809V225.686C20.8317 223.857 20.0904 223.215 18.6324 223.536C17.9217 223.728 17.3058 224.173 16.9006 224.787C16.4955 225.402 16.3292 226.143 16.433 226.872V241.996C16.433 243.824 17.1744 244.467 18.6324 244.146C19.343 243.954 19.959 243.509 20.3641 242.894C20.7692 242.28 20.9356 241.538 20.8317 240.809Z" fill="#FF6B00"/>
<path d="M27.183 217.654L33.4598 215.924C34.228 215.607 35.0579 215.466 35.8879 215.514C36.7178 215.561 37.5265 215.794 38.2539 216.196C38.8163 216.771 39.2417 217.464 39.4985 218.226C39.7552 218.988 39.8366 219.798 39.7366 220.595V222.399C39.841 223.562 39.6513 224.733 39.185 225.804C38.7186 226.875 37.9906 227.812 37.0678 228.528C37.5199 228.533 37.9617 228.663 38.3452 228.903C38.7286 229.143 39.039 229.483 39.2424 229.887C39.7272 231.068 39.9465 232.342 39.8849 233.618V238.561C39.8534 239.186 39.8534 239.813 39.8849 240.439C39.9257 240.913 40.06 241.375 40.2803 241.798L35.9557 242.959C35.8107 242.577 35.7112 242.179 35.6592 241.773C35.6043 241.074 35.6043 240.372 35.6592 239.673V234.755C35.7632 233.887 35.5528 233.01 35.0661 232.284C34.6707 231.888 33.9788 231.814 33.015 232.086L31.557 232.481V244.368L27.183 245.381V217.654ZM32.9656 227.959C33.7166 227.778 34.3859 227.352 34.8684 226.748C35.3517 226.019 35.5778 225.149 35.5109 224.277V222.152C35.5914 221.428 35.407 220.699 34.992 220.101C34.7607 219.928 34.4872 219.821 34.2002 219.79C33.9132 219.76 33.6233 219.807 33.361 219.928L31.4334 220.447V228.379L32.9656 227.959Z" fill="#FF6B00"/>
<path d="M48.732 238.116C48.1492 237.512 47.7056 236.787 47.4324 235.993C47.1592 235.199 47.063 234.355 47.1505 233.52V218.692C47.0839 216.75 47.6378 214.837 48.732 213.231C49.8465 211.644 51.496 210.512 53.3779 210.043C54.1349 209.74 54.9554 209.628 55.766 209.719C56.5766 209.809 57.3522 210.099 58.0237 210.562C58.6137 211.163 59.0637 211.886 59.3414 212.681C59.6191 213.475 59.7177 214.321 59.6299 215.159V218.075L55.6019 219.162V215.949C55.6019 214.244 54.91 213.478 53.5014 213.972C52.8231 214.142 52.2313 214.557 51.8392 215.136C51.4471 215.715 51.2822 216.418 51.3762 217.111V232.605C51.3762 234.286 52.0928 235.076 53.5014 234.557C54.1732 234.388 54.7588 233.976 55.1463 233.402C55.5338 232.827 55.696 232.13 55.6019 231.444V227.342L59.6299 226.254V230.159C59.6963 232.105 59.133 234.02 58.0237 235.62C56.8794 237.152 55.2362 238.235 53.3779 238.684C52.6168 238.981 51.7941 239.084 50.9834 238.985C50.1727 238.886 49.3992 238.587 48.732 238.116Z" fill="#FF6B00"/>
<path d="M61.433 208.313L67.7098 206.608C68.472 206.287 69.2969 206.143 70.1228 206.186C70.9487 206.228 71.7543 206.457 72.4792 206.855C73.0506 207.424 73.4836 208.117 73.745 208.879C74.0063 209.642 74.089 210.454 73.9866 211.254V212.959C74.0899 214.147 73.8902 215.341 73.4061 216.43C72.9221 217.519 72.1695 218.468 71.2189 219.187C71.671 219.192 72.1129 219.322 72.4963 219.562C72.8798 219.802 73.1901 220.142 73.3936 220.546C73.9234 221.751 74.1767 223.06 74.1349 224.376V229.318C74.1349 230.109 74.1349 230.727 74.1349 231.221C74.1907 231.685 74.3244 232.136 74.5303 232.556L70.2057 233.742C70.0663 233.358 69.9669 232.96 69.9092 232.556C69.8714 231.848 69.8714 231.138 69.9092 230.43V225.488C70.0132 224.62 69.8028 223.743 69.3161 223.017C68.9207 222.622 68.2288 222.547 67.2403 222.819L65.7823 223.215V235.101L61.5566 236.262L61.433 208.313ZM67.2156 218.618C67.9911 218.477 68.6915 218.065 69.1925 217.457C69.6571 216.72 69.8736 215.854 69.8103 214.986V212.86C69.8908 212.136 69.7065 211.408 69.2914 210.809C69.0649 210.628 68.7937 210.512 68.5066 210.473C68.2194 210.434 67.927 210.473 67.6604 210.587L65.7329 211.106V219.038L67.2156 218.618Z" fill="#FF6B00"/>
<path d="M76.2113 204.285L87.7764 201.122V205.101L80.3629 207.102V214.516L86.1949 212.934V216.888L80.3629 218.47V226.996L87.7764 224.994V228.948L76.2113 232.111V204.285Z" fill="#FF6B00"/>
<path d="M92.743 199.763L98.4762 198.206L102.875 224.87L98.6244 226.007L97.8584 220.719L92.916 222.028L92.1499 227.687L88.2207 228.75L92.743 199.763ZM97.3641 217.061L95.4613 203.865L93.6079 218.075L97.3641 217.061Z" fill="#FF6B00"/>
<path d="M105.717 200.159L101.318 201.394V197.44L114.415 193.882V197.836L109.967 199.047V222.819L105.742 223.956L105.717 200.159Z" fill="#FF6B00"/>
<path d="M116.887 219.483C116.277 218.874 115.812 218.136 115.525 217.324C115.239 216.511 115.138 215.644 115.231 214.788V200.158C115.161 198.166 115.742 196.206 116.887 194.573C118.06 193.001 119.748 191.89 121.656 191.435C122.433 191.123 123.274 191.007 124.106 191.097C124.938 191.188 125.734 191.482 126.426 191.954C127.034 192.564 127.498 193.302 127.785 194.114C128.071 194.927 128.172 195.793 128.081 196.649V211.229C128.155 213.229 127.573 215.199 126.426 216.839C125.244 218.393 123.557 219.485 121.656 219.928C120.886 220.251 120.048 220.379 119.216 220.301C118.384 220.224 117.584 219.943 116.887 219.483ZM123.855 212.712V197.687C123.855 195.858 123.114 195.216 121.656 195.562C120.95 195.753 120.338 196.195 119.933 196.804C119.529 197.413 119.359 198.149 119.457 198.873V214.022C119.457 215.826 120.198 216.493 121.656 216.147C122.386 215.954 123.018 215.494 123.425 214.858C123.832 214.222 123.986 213.456 123.855 212.712Z" fill="#FF6B00"/>
<path d="M130.207 189.557L136.484 187.803C137.246 187.482 138.071 187.337 138.897 187.38C139.722 187.423 140.528 187.652 141.253 188.05C141.824 188.618 142.257 189.311 142.519 190.074C142.78 190.836 142.863 191.649 142.76 192.448V194.153C142.871 195.342 142.674 196.538 142.19 197.629C141.705 198.719 140.949 199.667 139.993 200.381C140.445 200.387 140.887 200.517 141.27 200.756C141.654 200.996 141.964 201.336 142.167 201.74C142.654 202.93 142.873 204.212 142.81 205.496V210.439C142.81 211.229 142.81 211.847 142.81 212.341C142.854 212.807 142.989 213.261 143.205 213.676L138.955 214.986C138.816 214.608 138.709 214.219 138.633 213.824C138.596 213.116 138.596 212.407 138.633 211.699V206.756C138.738 205.888 138.527 205.012 138.04 204.285C137.645 203.89 136.953 203.816 135.989 204.088L134.531 204.483V216.369L130.281 217.531L130.207 189.557ZM135.915 199.862C136.667 199.698 137.34 199.279 137.818 198.676C138.293 197.943 138.518 197.076 138.461 196.205V194.079C138.541 193.355 138.357 192.627 137.942 192.028C137.715 191.847 137.444 191.731 137.157 191.692C136.87 191.653 136.577 191.692 136.311 191.806L134.383 192.325V200.257L135.915 199.862Z" fill="#FF6B00"/>
<path d="M145.8 211.6C145.209 210.976 144.761 210.23 144.488 209.415C144.215 208.6 144.123 207.735 144.219 206.88V205.299L148.271 204.187V206.089C148.271 207.893 149.013 208.561 150.471 208.19C151.125 208.03 151.703 207.645 152.102 207.103C152.514 206.418 152.712 205.627 152.67 204.829C152.705 203.819 152.438 202.821 151.904 201.963C151.117 200.962 150.143 200.123 149.038 199.491C147.597 198.67 146.35 197.549 145.38 196.205C144.652 194.981 144.292 193.574 144.342 192.152C144.281 190.184 144.843 188.246 145.949 186.616C147.14 185.072 148.837 183.995 150.743 183.577C151.492 183.272 152.307 183.162 153.111 183.257C153.915 183.352 154.681 183.649 155.339 184.121C155.916 184.759 156.352 185.511 156.62 186.328C156.889 187.145 156.982 188.01 156.896 188.865V190.027L152.893 191.114V189.681C152.934 189.339 152.908 188.993 152.814 188.662C152.721 188.332 152.563 188.022 152.349 187.753C152.128 187.581 151.865 187.471 151.588 187.432C151.31 187.393 151.027 187.427 150.767 187.531C150.083 187.722 149.492 188.156 149.105 188.752C148.718 189.348 148.562 190.065 148.667 190.768C148.669 191.65 148.936 192.511 149.433 193.239C150.245 194.225 151.224 195.061 152.324 195.71C153.782 196.518 155.034 197.651 155.982 199.022C156.692 200.331 157.034 201.809 156.97 203.297C157.046 205.317 156.474 207.308 155.339 208.981C154.166 210.548 152.477 211.651 150.57 212.094C149.802 212.443 148.956 212.581 148.118 212.494C147.28 212.407 146.48 212.099 145.8 211.6Z" fill="#FF6B00"/>
<path d="M164.012 180.389L175.231 177.325V181.279L168.263 183.181V190.916L173.724 189.434V193.387L168.263 194.87V206.954L164.012 208.116V180.389Z" fill="#FF6B00"/>
<path d="M176.541 176.929L182.868 175.2C183.631 174.881 184.457 174.739 185.284 174.786C186.11 174.834 186.915 175.068 187.637 175.472C188.208 176.04 188.641 176.733 188.903 177.495C189.164 178.258 189.247 179.071 189.144 179.87V181.575C189.249 182.768 189.045 183.967 188.552 185.058C188.058 186.149 187.292 187.094 186.327 187.803C186.779 187.809 187.221 187.938 187.605 188.178C187.988 188.418 188.298 188.758 188.502 189.162C188.977 190.346 189.187 191.619 189.12 192.893V197.836C189.086 198.461 189.086 199.088 189.12 199.714C189.164 200.185 189.289 200.645 189.49 201.073L185.339 202.259C185.175 201.881 185.067 201.482 185.018 201.073C184.98 200.373 184.98 199.672 185.018 198.972V194.03C185.122 193.162 184.911 192.285 184.424 191.559C184.029 191.163 183.337 191.089 182.373 191.361L180.891 191.757V203.643L176.665 204.804L176.541 176.929ZM182.324 187.234C183.072 187.061 183.742 186.644 184.227 186.048C184.702 185.315 184.927 184.448 184.869 183.577V181.452C184.95 180.728 184.765 179.999 184.35 179.401C184.119 179.22 183.843 179.104 183.553 179.065C183.262 179.026 182.966 179.065 182.695 179.178L180.767 179.697V187.63L182.324 187.234Z" fill="#FF6B00"/>
<path d="M192.753 198.824C192.143 198.215 191.678 197.477 191.391 196.665C191.105 195.852 191.004 194.985 191.097 194.129V179.549C191.027 177.549 191.608 175.58 192.753 173.939C193.936 172.382 195.621 171.282 197.522 170.825C198.298 170.513 199.14 170.397 199.972 170.488C200.804 170.578 201.6 170.873 202.291 171.344C202.901 171.953 203.366 172.691 203.653 173.504C203.94 174.316 204.04 175.183 203.947 176.04V190.62C204.017 192.619 203.436 194.588 202.291 196.229C201.114 197.792 199.427 198.894 197.522 199.343C196.746 199.655 195.904 199.771 195.072 199.681C194.24 199.59 193.444 199.296 192.753 198.824ZM199.721 192.053V176.929C199.721 175.101 198.98 174.458 197.522 174.779C196.793 174.951 196.154 175.387 195.729 176.004C195.304 176.621 195.124 177.373 195.224 178.115V193.239C195.224 195.068 195.965 195.71 197.423 195.389C198.138 195.202 198.76 194.759 199.17 194.144C199.58 193.529 199.75 192.785 199.647 192.053H199.721Z" fill="#FF6B00"/>
<path d="M205.998 168.898L212.052 167.242L214.746 186.345L217.464 165.76L223.519 164.104V191.831L219.515 192.918V171.913L216.426 193.758L212.893 194.722L209.804 174.557V195.562L206.097 196.575L205.998 168.898Z" fill="#FF6B00"/>
<path d="M232.761 187.926C232.166 187.329 231.714 186.606 231.436 185.81C231.158 185.015 231.062 184.167 231.155 183.33V168.503C231.088 166.572 231.652 164.672 232.761 163.091C233.896 161.561 235.531 160.477 237.382 160.026C238.139 159.723 238.96 159.611 239.77 159.702C240.581 159.792 241.356 160.082 242.028 160.545C242.615 161.148 243.063 161.871 243.341 162.665C243.618 163.459 243.718 164.305 243.634 165.142V168.033L239.705 169.071V165.858C239.705 164.153 238.988 163.387 237.58 163.857C236.902 164.037 236.313 164.457 235.922 165.039C235.531 165.62 235.365 166.325 235.454 167.02V182.514C235.454 184.195 236.171 184.837 237.58 184.466C238.25 184.292 238.835 183.88 239.226 183.308C239.617 182.736 239.787 182.041 239.705 181.353V177.102L243.708 176.015V179.944C243.73 181.872 243.142 183.758 242.028 185.331C240.888 186.863 239.242 187.94 237.382 188.371C236.637 188.694 235.822 188.823 235.014 188.745C234.206 188.667 233.43 188.385 232.761 187.926Z" fill="#FF6B00"/>
<path d="M245.439 158.148L251.715 156.443C252.479 156.124 253.305 155.983 254.131 156.03C254.958 156.077 255.762 156.311 256.485 156.715C257.058 157.283 257.492 157.975 257.753 158.738C258.015 159.501 258.096 160.314 257.992 161.114V162.819C258.095 164.006 257.896 165.2 257.412 166.29C256.928 167.379 256.175 168.327 255.224 169.046C255.68 169.034 256.13 169.157 256.516 169.399C256.903 169.64 257.21 169.99 257.399 170.405C257.886 171.586 258.106 172.861 258.042 174.137V179.079C258.042 179.87 258.042 180.513 258.042 180.982C258.089 181.445 258.214 181.896 258.412 182.316L254.112 183.503C253.96 183.121 253.852 182.723 253.791 182.316C253.753 181.609 253.753 180.899 253.791 180.191V175.249C253.893 174.381 253.683 173.505 253.198 172.778C252.899 172.578 252.554 172.457 252.195 172.426C251.836 172.396 251.475 172.457 251.147 172.605L249.664 173V184.887L245.439 186.048V158.148ZM251.221 168.478C251.972 168.296 252.641 167.87 253.124 167.267C253.604 166.536 253.83 165.668 253.766 164.796V162.646C253.848 161.93 253.663 161.209 253.247 160.619C253.016 160.439 252.741 160.323 252.45 160.284C252.159 160.245 251.863 160.284 251.592 160.397L249.664 160.916V168.849L251.221 168.478Z" fill="#FF6B00"/>
<path d="M260.24 154.096L271.83 150.957V154.911L264.417 156.913V164.326L270.224 162.745V166.699L264.417 168.305V176.806L271.83 174.829V178.783L260.29 181.921L260.24 154.096Z" fill="#FF6B00"/>
<path d="M276.773 149.598L282.506 148.041L286.905 174.557L282.679 175.719L281.864 170.504L277.07 171.814L276.279 177.448L272.374 178.511L276.773 149.598ZM281.394 166.896L279.516 153.7L277.564 168.033L281.394 166.896Z" fill="#FF6B00"/>
<path d="M289.722 150.018L285.298 151.229V147.275L298.396 143.692V147.646L293.972 148.857V172.629L289.722 173.791V150.018Z" fill="#FF6B00"/>
<path d="M300.891 169.318C300.289 168.704 299.828 167.966 299.542 167.154C299.256 166.343 299.151 165.479 299.236 164.623V150.043C299.178 148.045 299.758 146.08 300.891 144.433C302.079 142.87 303.774 141.769 305.686 141.32C306.462 141.007 307.303 140.892 308.135 140.982C308.967 141.073 309.764 141.367 310.455 141.839C311.065 142.447 311.53 143.185 311.816 143.998C312.103 144.811 312.204 145.677 312.111 146.534V161.114C312.184 163.106 311.603 165.068 310.455 166.699C309.282 168.271 307.594 169.382 305.686 169.837C304.905 170.149 304.06 170.265 303.224 170.175C302.388 170.084 301.587 169.79 300.891 169.318ZM307.86 162.547V147.399C307.86 145.595 307.144 144.928 305.686 145.274C304.972 145.46 304.353 145.904 303.947 146.52C303.541 147.136 303.377 147.88 303.486 148.61V163.733C303.486 165.562 304.203 166.204 305.686 165.883C306.392 165.686 307.002 165.239 307.402 164.625C307.802 164.011 307.965 163.272 307.86 162.547Z" fill="#FF6B00"/>
<path d="M314.211 139.392L320.512 137.662C321.276 137.343 322.102 137.202 322.928 137.249C323.754 137.296 324.559 137.53 325.282 137.934C325.85 138.505 326.281 139.198 326.542 139.96C326.803 140.722 326.888 141.533 326.789 142.333V144.038C326.889 145.227 326.686 146.423 326.197 147.512C325.709 148.602 324.952 149.549 323.997 150.265C324.449 150.271 324.891 150.401 325.274 150.641C325.657 150.88 325.968 151.221 326.171 151.624C326.67 152.802 326.89 154.079 326.814 155.356V160.298C326.814 161.089 326.814 161.732 326.814 162.201C326.866 162.666 327 163.117 327.209 163.536L322.884 164.722C322.739 164.339 322.64 163.941 322.588 163.536C322.55 162.828 322.55 162.118 322.588 161.41V156.468C322.69 155.6 322.48 154.724 321.995 153.997C321.691 153.797 321.342 153.676 320.979 153.646C320.616 153.615 320.252 153.677 319.919 153.824L318.461 154.219V166.106L314.211 167.242V139.392ZM319.993 149.697C320.746 149.521 321.417 149.094 321.896 148.486C322.386 147.76 322.613 146.888 322.539 146.015V143.865C322.62 143.149 322.435 142.428 322.02 141.839C321.793 141.658 321.522 141.542 321.235 141.503C320.948 141.463 320.655 141.503 320.389 141.616L318.461 142.135V150.068L319.993 149.697Z" fill="#FF6B00"/>
<path d="M329.854 161.435C329.269 160.802 328.825 160.051 328.553 159.233C328.28 158.415 328.184 157.548 328.272 156.69V155.109L332.276 154.021V155.924C332.276 157.728 333.017 158.396 334.475 158.025C335.136 157.865 335.716 157.47 336.106 156.913C336.524 156.231 336.722 155.437 336.674 154.639C336.714 153.636 336.446 152.645 335.908 151.797C335.136 150.792 334.17 149.951 333.066 149.326C331.625 148.497 330.371 147.378 329.384 146.04C328.652 144.809 328.291 143.393 328.347 141.962C328.28 139.997 328.852 138.064 329.977 136.451C331.121 134.891 332.788 133.795 334.673 133.362C335.421 133.051 336.237 132.937 337.042 133.032C337.847 133.127 338.614 133.428 339.269 133.906C339.85 134.542 340.289 135.293 340.557 136.111C340.826 136.929 340.917 137.795 340.826 138.651V139.787L336.823 140.85V139.417C336.872 139.075 336.848 138.727 336.755 138.395C336.661 138.063 336.499 137.755 336.279 137.489C336.066 137.31 335.808 137.194 335.532 137.155C335.257 137.115 334.976 137.154 334.722 137.267C334.035 137.448 333.439 137.875 333.047 138.468C332.655 139.06 332.495 139.776 332.597 140.479C332.566 141.416 332.844 142.336 333.388 143.099C334.184 144.091 335.156 144.928 336.254 145.57C337.711 146.378 338.963 147.511 339.912 148.881C340.673 150.193 341.057 151.69 341.024 153.206C341.092 155.221 340.511 157.205 339.368 158.865C338.21 160.442 336.528 161.555 334.623 162.003C333.846 162.322 332.999 162.437 332.165 162.338C331.33 162.238 330.535 161.928 329.854 161.435Z" fill="#FF6B00"/>
<path d="M340.925 97.7526V115.051L285.076 130.273V112.975L340.925 97.7526Z" fill="#FF6B00"/>
</svg>
